<svg xmlns="http://www.w3.org/2000/svg" width="156" height="22">
  <g fill="none" fill-rule="evenodd">
    <path d="M0 20.3h4.2l.9-5.7h2.4c3.7 0 6-1.8 6.7-5.9.6-4-1.6-5.7-5.1-5.7H2.6L0 20.3zM6.3 6.7H7c1.6 0 3 0 2.7 2.2C9.4 11 7.9 11 6.4 11h-.8l.7-4.3zm25.6-2.8l-1.1 7.2c.9-1.1 1.9-1.5 3.2-1.5 2.3 0 3.2 1.6 2.8 4.1l-.9 6h-3.3l.7-5c.2-1.1.2-2.3-1.1-2.3s-1.9 1.2-2 2.3l-.7 5h-3.3L28.6 4h3.3v-.1zm12.2 5.7c-3 0-5.8 1.9-6.3 5.2-.5 3.3 1.8 5.2 4.8 5.2s5.8-1.9 6.3-5.2c.4-3.4-1.9-5.2-4.8-5.2m-.5 2.9c1.3 0 1.9 1 1.8 2.2-.2 1.2-1.1 2.2-2.4 2.2-1.3 0-1.9-.9-1.8-2.2.2-1.1 1.1-2.2 2.4-2.2m10.1-1.4c1-1.1 2-1.5 3.2-1.5 1.3 0 2.4.6 2.9 1.9.8-1.2 2.1-1.9 3.4-1.9 2.3 0 2.9 1.6 2.6 3.8l-.9 6.2h-3.3l.7-4.6c.1-1 .4-2.7-.9-2.7-1.5 0-1.8 1.5-2 2.7l-.7 4.6h-3.3L56 15c.2-1.1.4-2.7-1-2.7s-1.7 1.6-1.9 2.7l-.7 4.6h-3.3l1.5-9.7h3.3l-.2 1.2zM76.6 15c.5-3.3-1-5.4-4.2-5.4-3 0-5.4 2-5.9 5.2C66 18.2 68 20 71 20c2.1 0 4.3-1 5.2-3.3h-3.1c-.5.6-1 .9-1.7.9-1.3 0-1.9-.8-1.7-2.2h6.8l.1-.4zm-6.5-1.7c.3-1 1.2-1.5 2.2-1.5.9 0 1.6.6 1.6 1.5h-3.8zM26.6 9l.8-5.1c-.9-.4-1.7-.7-2.7-.8l-.6 4.2c1.1.1 2 .7 2.5 1.7m-.8 5.5c-.8.9-1.9 1.5-3.1 1.7l-.6 4.2c.9-.1 1.8-.4 2.9-.7l.8-5.2zm-3.7 5.8l.6-4.2c-.2 0-.5.1-.7.1-2.5 0-3.9-1.9-3.5-4.5.4-2.6 2.4-4.6 4.8-4.6.3 0 .5 0 .7.1l.6-4.2h-.8c-2.2 0-4.5 1-6.3 2.7-1.7 1.6-2.9 3.8-3.2 6-.4 2.4.1 4.6 1.6 6.2 1.4 1.6 3.3 2.4 5.5 2.4.2.1.5 0 .7 0m63.2-.2c-2.5-.1-4.3-.9-5.4-2.5-.6-.9-.9-2-.9-3.5v-11h3.5v10.8c0 1 .2 1.8.7 2.4.5.6 1.2.9 2.1 1v2.8zm12.6-3.3c.5.4 1.2.6 1.9.6v2.7c-4.1-.2-6.2-2-6.3-5.4h3.2c.1.9.5 1.6 1.2 2.1zM99.8 6c-.7 0-1.4.1-1.9.4-.7.4-1 .9-1 1.5 0 .9.8 1.6 2.5 2 .1 0 .3.1.4.1v3.1c-2.1-.5-3.3-.8-3.5-1-1.7-.8-2.5-2.1-2.5-4 0-1 .3-1.8.7-2.6.5-.8 1.2-1.3 2.2-1.8.9-.4 2-.6 3.1-.6V6zm11.5 14h-4.4l6.5-16.9h4.4zm-20.8-1.3c-1.1.9-2.6 1.4-4.6 1.5v-2.9c1.9-.1 2.8-1.2 2.8-3.2v-11h3.5V14c.1 2.1-.5 3.6-1.7 4.7m9.9-1.3c.8 0 1.5-.2 2.1-.6.6-.4 1-.9 1-1.5 0-1-.8-1.6-2.5-2-.2 0-.4-.1-.6-.1v-3.1c2.2.5 3.5.9 3.8 1 1.7.8 2.5 2 2.5 3.8 0 1.1-.2 2-.7 2.7-.6.8-1.3 1.4-2.3 1.9-.9.4-1.9.6-3 .6h-.3v-2.7zm1.5-10.8c-.4-.3-.9-.5-1.5-.5V3.2c1.4.1 2.7.5 3.7 1.3 1.3 1 2 2.3 2.1 4H103c-.1-.9-.5-1.5-1.1-1.9zM124.3 20L118 3.8 116 9l1.6 4.3h-3.1l-1.5 3.9h6.1l1 2.8h.1z" fill="#FFF"/>
    <path d="M47.4 4.3c-.3-.2-.8-.6-1.2-.8l.4-.5c.4.2 1 .5 1.2.7l-.4.6zm-1 2.9c.3-.6.7-1.6 1-2.4l.6.4c-.3.8-.6 1.7-1 2.4l-.6-.4zm1.5-5c-.3-.2-.8-.6-1.3-.8l.4-.5c.4.2 1 .5 1.3.8l-.4.5zm1.4 0c-.2.5-.5.9-.8 1.2-.1-.1-.4-.3-.6-.4.5-.5 1-1.4 1.2-2.3l.8.3c-.1.2-.2.4-.2.6H53v.6h-3.7zM52.5 5c0 .4 0 .7-.1 1h.5v.6h-.6c-.1.4-.1.6-.2.7-.2.2-.3.3-.6.3h-.9c0-.2-.1-.4-.2-.6h.8c.1 0 .2 0 .3-.1.1-.1.1-.2.1-.4h-3.2c.1-.4.2-1 .3-1.6H48v-.5h.8c.1-.5.1-1.1.2-1.5h3.6v.3c0 .4 0 .8-.1 1.2h.6V5h-.6zm-3.1 0c-.1.4-.1.7-.2 1h1.4c-.2-.2-.5-.6-.8-.8l.4-.2h-.8zm.2-1.5c0 .3-.1.6-.1.9h1.3l-.7-.7.3-.2h-.8zM51.8 6c0-.3.1-.6.1-1h-1.5c.3.2.6.6.8.8l-.3.2h.9zm-1.3-2.5c.3.2.6.5.7.7l-.2.2h.9v-.9h-1.4zm6.6-1.6l.5.1c-.4 3-1.5 4.8-3.1 5.6-.1-.2-.4-.5-.6-.6.9-.3 1.6-1 2.1-2-.3-.3-.7-.8-1.1-1.2-.1.2-.3.5-.4.6-.1-.1-.4-.3-.6-.4.7-.8 1.1-2 1.4-3.3l.7.1c-.1.3-.2.7-.3 1H57l.1.1zm-1.6.7c-.1.2-.2.5-.3.7.3.3.8.7 1.1 1.1.2-.5.4-1.1.5-1.8h-1.3zm3.6.4c.6.5 1.4 1.2 1.8 1.7l-.6.5c-.3-.4-.9-1-1.4-1.5v4h-.7V.8h.7v2.4l.2-.2zm5.1-1.9c-.2.5-.5 1-.8 1.5v5.1h-.7V3.6c-.3.4-.6.7-.9 1-.1-.2-.3-.5-.4-.7.8-.7 1.6-1.8 2.1-3l.7.2zm2 2.6c.2 1.8.7 3.1 1.4 3.2.2 0 .3-.4.4-1.3.1.1.4.3.6.4-.2 1.4-.5 1.7-.9 1.7-1.3-.1-1.8-1.6-2.1-3.9l-1.7.2-.1-.7 1.7-.2c-.1-.7-.1-1.4-.1-2.2h.6c0 .8.1 1.5.1 2.1l2.2-.3.1.7-2.2.3zm1.5-1.2c-.2-.3-.7-.9-1.1-1.2l.5-.3 1.2 1.2-.6.3zm2.9 3.6c-.2.6-.5 1.3-.9 1.7-.1-.1-.4-.3-.5-.4.3-.4.6-.9.8-1.4l.6.1zm1.2-.3h-2.2V1.1h2.2v4.7zm-.7-4.2h-1v.8h1v-.8zm0 1.4h-1v.8h1V3zm0 1.4h-1v.9h1v-.9zm.3 1.5c.3.4.5.9.6 1.2l-.5.3c-.1-.3-.4-.8-.6-1.2l.5-.3zm4.7.6h-.4V7c0 .3-.1.5-.3.6-.2.1-.6.1-1.1.1 0-.2-.1-.4-.2-.6h.8c.1 0 .1 0 .1-.1v-.5h-2.2v1.2h-.6V6.5h-.4V6h.4V4.1h1.4v-.4h-1.8v-.5h1v-.4h-.7v-.5h.7v-.4H72v-.5h.9V.8h.6v.6h1V.8h.6v.6h.9v.5h-.9v.4h.8v.5h-.8v.4h1v.5h-1.8v.4h1.4V6h.4v.5zm-3.2-1.9V5h.8v-.4h-.8zm0 1.4h.8v-.5h-.8V6zm.6-3.7h1v-.4h-1v.4zm0 .9h1v-.4h-1v.4zm.8 1.4V5h.8v-.4h-.8zm.8 1.4v-.5h-.8V6h.8z" fill="#FFF" fill-rule="nonzero"/>
    <path fill="#404040" fill-rule="nonzero" d="M152.4 1.8h-23c-1.3 0-2.6 1.1-2.6 2.6v17.2l4.3-3.4h21.3c1.5 0 2.8-1.3 2.8-2.8v-11c0-1.5-1.3-2.8-2.8-2.6z"/>
    <path d="M130 7.4c0-.4.2-.7.7-.7h1.6c1.4 0 2.2.6 2.2 2 0 1-.7 1.6-1.7 1.7l1.5 1.6c.1.1.2.3.2.4 0 .3-.3.7-.7.7-.2 0-.4-.1-.5-.2l-2-2.4v1.9c0 .5-.3.7-.7.7-.4 0-.7-.3-.7-.7v-5h.1zm1.4 2.1h.9c.5 0 .8-.3.8-.8s-.3-.8-.8-.8h-.9v1.6zM135 9c0-.4.3-.7.6-.7.4 0 .6.3.6.7v2.3c0 .5.4.8.8.8s.8-.3.8-.8V9c0-.4.3-.7.6-.7.4 0 .6.3.6.7v2.3c0 1.1-.8 1.9-2.1 1.9-1.4 0-2.1-.7-2.1-1.9V9h.2zm5.3.4h-.3c-.3 0-.6-.2-.6-.6 0-.3.2-.6.6-.6h.3v-.7c0-.4.3-.7.6-.7.4 0 .6.3.6.7v.8h.4c.3 0 .6.2.6.6 0 .4-.3.6-.6.6h-.4v3c0 .4-.3.7-.6.7-.4 0-.6-.3-.6-.7V9.4zm3.4 1.7c.1.6.6.9 1.2.9.7 0 1.1-.5 1.5-.5.3 0 .5.3.5.6 0 .6-1.2 1.1-2.1 1.1-1.5 0-2.4-1.1-2.4-2.5 0-1.3 1-2.5 2.3-2.5 1.4 0 2.3 1.3 2.3 2.4 0 .4-.2.6-.6.6h-2.7v-.1zm2-.8c-.1-.6-.4-1-1-1s-1 .4-1 1h2zm1.7-1.3c0-.4.3-.7.6-.7s.5.2.6.5c.3-.4.6-.5 1.2-.5 1 0 1.8.6 1.8 1.7v2.5c0 .4-.3.7-.6.7-.4 0-.6-.3-.6-.7v-2.3c0-.6-.4-.9-.8-.9-.5 0-.8.4-.8.9v2.3c0 .4-.3.7-.6.7-.4 0-.6-.3-.6-.7V9h-.2z" fill="#FFF" fill-rule="nonzero"/>
  </g>
</svg>
