<?xml version="1.0" encoding="utf-8"?>
<!-- Generator: Adobe Illustrator 25.4.1, SVG Export Plug-In . SVG Version: 6.00 Build 0)  -->
<svg version="1.1" id="_圖層_1" xmlns="http://www.w3.org/2000/svg" xmlns:xlink="http://www.w3.org/1999/xlink" x="0px" y="0px"
	 viewBox="0 0 347.4 166.3" style="enable-background:new 0 0 347.4 166.3;" xml:space="preserve">
<style type="text/css">
	.st0{fill:#FFFFFF;}
</style>
<g>
	<path class="st0" d="M118.1,25.9H83.7v-9.2h46.1c0.6,0,1.1-0.5,1.1-1.1v-9c0-0.6-0.5-1.1-1.1-1.1H26.4c-0.6,0-1.1,0.5-1.1,1.1v9
		c0,0.6,0.5,1.1,1.1,1.1h46.1v9.2H38.1c-18,0-32.6,14.6-32.6,32.6v10.8c0,0.6,0.5,1.1,1.1,1.1h9c0.6,0,1.1-0.5,1.1-1.1V58.5
		c0-11.8,9.6-21.4,21.4-21.4h34.4v27.7c0,0.6,0.5,1.1,1.1,1.1h9c0.6,0,1.1-0.5,1.1-1.1V37h34.4c11.8,0,21.4,9.6,21.4,21.4v10.8
		c0,0.6,0.5,1.1,1.1,1.1h9c0.6,0,1.1-0.5,1.1-1.1V58.5C150.7,40.5,136.1,25.9,118.1,25.9L118.1,25.9z"/>
	<path class="st0" d="M278,151.5c-28.3-0.6-51.8-26.3-56.7-60h52.4c0.5,0,1-0.5,1-1.1v-9.1c0-0.6-0.4-1.1-1-1.1h-53.3
		c0-0.6,0-1.2,0-1.8V38.5h46.1c0.5,0,0.9-0.5,0.9-1.1v-9.1c0-0.6-0.4-1.1-0.9-1.1H164.2c-0.5,0-0.9,0.5-0.9,1.1v9.1
		c0,0.6,0.4,1.1,0.9,1.1h45.6v39.9c0,0.6,0,1.2,0,1.8h-52.9c-0.5,0-1,0.5-1,1.1v9.1c0,0.6,0.4,1.1,1,1.1h52.1
		c-4.9,33.7-28.4,59.4-56.7,60c-0.6,0-1,0.5-1,1.1v9.1c0,0.6,0.5,1.2,1.1,1.1c28.3-0.5,52.5-21.8,62.9-51.8
		c10.4,30,34.6,51.3,62.9,51.8c0.6,0,1.1-0.5,1.1-1.1v-9.1C279.1,152,278.6,151.5,278,151.5L278,151.5z"/>
	<path class="st0" d="M304.2,100.1v1.6c0,0.2,0.2,0.4,0.4,0.4h9.5v-2.4h-9.6C304.4,99.8,304.2,99.9,304.2,100.1L304.2,100.1z"/>
	<rect x="304.2" y="94.5" class="st0" width="10" height="2.2"/>
	<path class="st0" d="M304.2,89.3v2h10V89h-9.7C304.3,89,304.2,89.2,304.2,89.3L304.2,89.3z"/>
	<path class="st0" d="M336.3,27.1h-42.1c-5.2,0-9.5,4.2-9.5,9.4v97.4h51.6c6.1,0,11.1-5,11.1-11V38.1
		C347.4,32,342.4,27.1,336.3,27.1z M300.5,44.5c-0.2,0-0.3-0.1-0.3-0.3v-3.5c0-0.2,0.1-0.3,0.3-0.3h13.7v-3.5c0-0.2,0.1-0.3,0.3-0.3
		h3.5c0.2,0,0.3,0.1,0.3,0.3v3.5H332c0.2,0,0.3,0.1,0.3,0.3v3.5c0,0.2-0.1,0.3-0.3,0.3h-13.6v4.1h8.4c3.1,0,5.6,2.5,5.6,5.6v12
		c0,2.1-1.7,3.8-3.9,3.8h-3.1c-0.2,0-0.3-0.1-0.3-0.3v-3.5c0-0.2,0.1-0.3,0.3-0.3h2.4c0.2,0,0.3-0.1,0.3-0.3V54.2
		c0-0.8-0.6-1.4-1.5-1.4h-8.4v20.9c0,0.2-0.1,0.3-0.3,0.3h-3.5c-0.2,0-0.3-0.1-0.3-0.3V52.7h-8.7c-0.8,0-1.5,0.6-1.5,1.4l0,15
		c0,0.2-0.1,0.3-0.3,0.3h-3.5c-0.2,0-0.3-0.1-0.3-0.3l0-15c0-3.1,2.5-5.6,5.6-5.6h8.7v-4.1L300.5,44.5L300.5,44.5z M334.2,112.9
		c0,0.2-0.1,0.3-0.3,0.3h-12.6c2.6,2.5,6.7,4.1,11.2,4.2c0.2,0,0.3,0.1,0.3,0.3v3.5c0,0.2-0.2,0.3-0.4,0.3
		c-5.5-0.1-10.7-2.1-14.1-5.4v6.1c0,0.2-0.1,0.3-0.3,0.3h-3.5c-0.2,0-0.3-0.1-0.3-0.3v-6c-3.4,3.2-8.4,5.2-14,5.3
		c-0.2,0-0.4-0.1-0.4-0.3v-3.5c0-0.2,0.1-0.3,0.3-0.3c4.4-0.1,8.5-1.7,11.1-4.2h-12.5c-0.2,0-0.3-0.1-0.3-0.3v-3.5
		c0-0.2,0.1-0.3,0.3-0.3h15.4v-2.8h-10c-2.3,0-4.2-1.9-4.2-4.1l0,0v-8.4c0-0.1,0-0.2-0.1-0.2l-3.2-3.3c-0.1-0.1-0.1-0.3,0-0.5
		c2.3-2.2,4.3-4.6,6-7.3c0,0,0.3-0.5,0.4-0.5c0.2,0,4.1,2.7,4.1,2.7c0,0,0.1,0,0.2,0h6.7v-3.7c0-0.2,0.1-0.3,0.3-0.3h3.5
		c0.2,0,0.3,0.1,0.3,0.3v3.7h14.2c0.2,0,0.3,0.1,0.3,0.3v3.5c0,0.2-0.1,0.3-0.3,0.3h-14.2v2.4H331c0.2,0,0.3,0.1,0.3,0.3v2.5
		c0,0.2-0.1,0.3-0.3,0.3h-12.7v2.2H331c0.2,0,0.3,0.1,0.3,0.3v2.5c0,0.2-0.1,0.3-0.3,0.3h-12.7v2.4h12.8c0.2,0,0.3,0.1,0.3,0.3v3.5
		c0,0.2-0.1,0.3-0.3,0.3h-12.8v2.8h15.6c0.2,0,0.3,0.1,0.3,0.3L334.2,112.9L334.2,112.9z"/>
	<path class="st0" d="M60.3,79.5H32.3c-5.9,0-10.7,4.8-10.7,10.7v11.6c0,5.9,4.8,10.7,10.7,10.7h9.3v40.9c-6.6-1.2-11.6-7-11.6-14
		v-10.6c0-0.6-0.5-1.1-1.1-1.1h-9c-0.6,0-1.1,0.5-1.1,1.1l0,11.1c0,13.8,11.1,25,24.9,25h25.8c0.6,0,1.1-0.5,1.1-1.1v-9
		c0-0.6-0.5-1.1-1.1-1.1H52.8v-15.7h16.8c0.6,0,1.1-0.5,1.1-1.1v-9c0-0.6-0.5-1.1-1.1-1.1H52.8v-14.3h7.4c5.9,0,10.7-4.8,10.7-10.7
		V90.2C70.9,84.3,66.2,79.5,60.3,79.5L60.3,79.5z M59.8,97.7c0,2-1.6,3.6-3.6,3.6H36.4c-2,0-3.6-1.6-3.6-3.6v-3.5
		c0-2,1.6-3.6,3.6-3.6h19.8c2,0,3.6,1.6,3.6,3.6V97.7z"/>
	<path class="st0" d="M130.2,103.8c3-3.9,4.6-8,4.6-12v-1.5c0-5.9-4.8-10.7-10.7-10.7H93.2c-5.9,0-10.7,4.8-10.7,10.7v1.5
		c0,4,1.6,8.2,4.6,12c2,2.5,4.6,4.8,7.8,6.6l1.9,1.1c-3.9,1.6-6.3,1.9-7.5,1.9l-5.3,0c-0.6,0-1.1,0.5-1.1,1.1l0,9
		c0,0.6,0.5,1.1,1.1,1.1l5.2,0c0.1,0,0.1,0,0.2,0c0,0,0.1,0,0.1,0h0c0.1,0,0.2,0,0.3,0c4.9-0.1,11.1-2.2,18.7-6.3
		c7.9,4.2,14.2,6.3,19.1,6.3c0.2,0,0.4,0,0.6,0l4.8,0c0.6,0,1.1-0.5,1.1-1.1v-9c0-0.6-0.5-1.1-1.1-1.1h-4.3c-0.2,0-0.4,0-0.7,0v0
		h-0.4h0c-1,0-3.3-0.3-7.4-1.9l1.9-1.1C125.5,108.6,128.2,106.4,130.2,103.8L130.2,103.8z M116.7,100.8l-6.2,3.6
		c-1.1,0.6-2.5,0.6-3.6,0l-6.2-3.6c-2-1.1-3.5-2.5-4.7-3.9c-0.4-0.5-0.8-1.3-1.1-2.1c-0.9-2.3,0.9-4.8,3.3-4.8h21.1
		c2.5,0,4.3,2.5,3.3,4.8c-0.3,0.8-0.7,1.5-1.1,2C120.2,98.3,118.6,99.6,116.7,100.8L116.7,100.8z"/>
	<path class="st0" d="M128.9,130.8H94.6c-6.5,0-11.7,4.7-11.7,10.5v22.3c0,0.6,0.5,1.1,1.1,1.1h37.2c10.8,0,19.6-7.9,19.6-17.5v-5.8
		C140.7,135.5,135.4,130.8,128.9,130.8L128.9,130.8z M130.1,147.2c0,3.7-4.1,6.9-9,6.9H93.5v-12.2c0.2-0.1,0.6-0.3,1.2-0.3H129
		c0.6,0,1,0.2,1.2,0.3L130.1,147.2L130.1,147.2z"/>
</g>
<path class="st0" d="M54.2,69l-7.1-7.1c-0.4-0.4-1.1-0.4-1.5,0L38.5,69c-0.4,0.4-1.1,0.4-1.5,0l-6.4-6.4c-0.4-0.4-0.4-1.1,0-1.5
	l8.3-8.3c4.1-4.1,10.8-4.1,14.9,0l8.3,8.3c0.4,0.4,0.4,1.1,0,1.5L55.7,69C55.3,69.4,54.6,69.4,54.2,69L54.2,69z"/>
<path class="st0" d="M119.8,69.6l-7.1-7.1c-0.4-0.4-1.1-0.4-1.5,0l-7.1,7.1c-0.4,0.4-1.1,0.4-1.5,0l-6.4-6.4c-0.4-0.4-0.4-1.1,0-1.5
	l8.3-8.3c4.1-4.1,10.8-4.1,14.9,0l8.3,8.3c0.4,0.4,0.4,1.1,0,1.5l-6.4,6.4C120.9,70.1,120.2,70.1,119.8,69.6L119.8,69.6z"/>
</svg>
